<svg width="20" height="24" viewBox="0 0 20 24" fill="none" xmlns="http://www.w3.org/2000/svg">
<path d="M10.0555 20.2724C6.88857 16.9798 2.75479 11.8219 2.75479 9.25906C2.75479 5.55193 6.02948 2.53661 10.0555 2.53661C13.5774 2.53661 16.5256 4.84554 17.2072 7.90464L20 7.90464C19.2867 3.43858 15.0991 0 10.0555 0C4.51102 0 0 4.15373 0 9.25906C0 14.0404 8.1249 22.1172 9.05373 23.0221L10.0555 24L11.0572 23.0192C11.9005 22.1931 18.7129 15.4211 19.9239 10.6076H17.0804C16.104 13.3632 12.7342 17.4819 10.0555 20.2695V20.2724ZM10.0555 6.70202C11.0477 6.70202 11.9163 7.18365 12.4077 7.90464H15.3875C14.7408 5.75334 12.5979 4.16541 10.0586 4.16541C7.00903 4.16541 4.53004 6.45098 4.53004 9.25614C4.53004 12.0613 7.0122 14.3469 10.0586 14.3469C12.5979 14.3469 14.744 12.7619 15.3875 10.6076H12.4077C11.9163 11.3286 11.0477 11.8103 10.0555 11.8103C8.52433 11.8103 7.27849 10.6631 7.27849 9.25322C7.27849 7.84335 8.52433 6.69618 10.0555 6.69618V6.70202Z" fill="#643968"/>
</svg>
